<?xml version="1.0" encoding="utf-8"?>
<!-- Generator: Adobe Illustrator 15.1.0, SVG Export Plug-In . SVG Version: 6.00 Build 0)  -->
<!DOCTYPE svg PUBLIC "-//W3C//DTD SVG 1.1//EN" "http://www.w3.org/Graphics/SVG/1.1/DTD/svg11.dtd">
<svg version="1.1" id="Layer_1" xmlns="http://www.w3.org/2000/svg" xmlns:xlink="http://www.w3.org/1999/xlink" x="0px" y="0px"
	 width="26px" height="12px" viewBox="-1 -1 26 12" enable-background="new -1 -1 26 12" xml:space="preserve">
<path fill="#EC1C24" d="M18.77,0.008c-1.939-0.052-4.082,2.084-6.514,2.182C9.688,2.062,7.406,0,5.259,0.014
	C2.6-0.138,0.248,1.86,0.018,4.599c-0.235,2.733,1.895,5.203,4.75,5.366C4.79,9.974,4.812,9.97,4.83,9.97
	c0.002,0.008-0.004,0.012-0.002,0.022c0.05-0.005,0.1-0.013,0.147-0.017c0.799,0.017,1.551-0.151,2.219-0.465
	C9,8.94,10.7,8.095,12.33,8.211c2.334,0.164,4.939,2.05,7.006,1.759c0.043-0.009,0.084-0.017,0.125-0.023
	c2.749-0.268,4.753-2.68,4.521-5.357C23.747,1.845,21.419-0.147,18.77,0.008z M4.93,6.677C4.001,6.621,3.29,5.828,3.346,4.913
	C3.407,4,4.186,3.314,5.093,3.367C6,3.418,6.708,4.187,6.673,5.104C6.638,6.021,5.859,6.728,4.93,6.677z M19.035,6.672
	c-0.923,0.052-1.703-0.655-1.734-1.566c-0.035-0.919,0.668-1.69,1.57-1.744c0.898-0.053,1.68,0.632,1.734,1.548
	C20.664,5.818,19.957,6.613,19.035,6.672z"/>
</svg>
